<?xml version="1.0" encoding="UTF-8" standalone="no"?>
<svg
   xmlns:dc="http://purl.org/dc/elements/1.1/"
   xmlns:cc="http://creativecommons.org/ns#"
   xmlns:rdf="http://www.w3.org/1999/02/22-rdf-syntax-ns#"
   xmlns:svg="http://www.w3.org/2000/svg"
   xmlns="http://www.w3.org/2000/svg"
   version="1.1"
   id="svg4136"
   viewBox="0 0 131.3739 100.47761"
   style="clip-rule:evenodd;fill-rule:evenodd;image-rendering:optimizeQuality;shape-rendering:geometricPrecision;text-rendering:geometricPrecision"
   height="100.47761mm"
   width="131.3739mm"
   xml:space="preserve"><metadata
     id="metadata4183"><rdf:RDF><cc:Work
         rdf:about=""><dc:format>image/svg+xml</dc:format><dc:type
           rdf:resource="http://purl.org/dc/dcmitype/StillImage" /><dc:title></dc:title></cc:Work></rdf:RDF></metadata><defs
     id="defs4138"><style
       id="style4140"
       type="text/css"><![CDATA[
    .str0 {stroke:#2B2A29;stroke-width:0.25}
    .str1 {stroke:#2B2A29;stroke-width:0.32}
    .str2 {stroke:#2B2A29;stroke-width:0.3528}
    .str3 {stroke:#2B2A29;stroke-width:0.7056}
    .str5 {stroke:#FEFEFE;stroke-width:0.7056}
    .str4 {stroke:#2B2A29;stroke-width:0.706}
    .fil0 {fill:none}
    .fil2 {fill:#2B2A29}
    .fil3 {fill:#2B2A29;fill-rule:nonzero}
    .fil1 {fill:#2B2A29;fill-rule:nonzero}
   ]]></style></defs><g
     transform="translate(0.35270001,-196.647)"
     id="Layer_x0020_1"><metadata
       id="CorelCorpID_0Corel-Layer" /><g
       id="_270896840"><circle
         style="fill:none;stroke:#2b2a29;stroke-width:0.25"
         r="38.209599"
         cy="258.79001"
         cx="38.209599"
         class="fil0 str0"
         id="_578470040" /><circle
         style="fill:none;stroke:#2b2a29;stroke-width:0.25"
         r="30.895201"
         cy="227.895"
         cx="100.001"
         class="fil0 str0"
         id="_578470520" /><line
         style="fill:none;stroke:#2b2a29;stroke-width:0.31999999"
         y2="227.895"
         x2="100.001"
         y1="258.79001"
         x1="38.2103"
         class="fil0 str1"
         id="_578470928" /><rect
         style="fill:none"
         height="61.790298"
         width="61.790298"
         y="197"
         x="38.2103"
         class="fil0"
         id="_578033672" /><path
         style="fill:#2b2a29;fill-rule:nonzero"
         d="m 39.1997,239.061 0,5.075 -0.5448,0 0,-5.6277 1.5119,0 c 0.3324,0 0.5989,0.0251 0.802,0.0753 0.2017,0.05 0.3851,0.1331 0.5501,0.2493 0.2243,0.1569 0.401,0.3667 0.5315,0.6306 0.1307,0.2624 0.1953,0.5408 0.1953,0.8351 0,0.4353 -0.1293,0.8099 -0.3877,1.1239 -0.26,0.3153 -0.5832,0.4868 -0.9723,0.5144 l 1.36,2.1991 -0.6568,0 -1.6702,-2.7135 0.5329,0 c 0.3562,0 0.6451,-0.1043 0.868,-0.3126 0.2231,-0.2086 0.3352,-0.4777 0.3352,-0.8049 0,-0.1978 -0.0344,-0.3786 -0.103,-0.5408 -0.0672,-0.1622 -0.1689,-0.3034 -0.3034,-0.4248 -0.1108,-0.1002 -0.2441,-0.1715 -0.3996,-0.215 -0.1557,-0.0422 -0.4341,-0.0634 -0.8339,-0.0634 l -0.8152,0 z"
         class="fil1"
         id="_578469896" /><path
         style="fill:#2b2a29;fill-rule:nonzero"
         d="m 43.0491,238.509 0.5527,0 0,3.5592 c 0,0.2756 0.0105,0.4828 0.0329,0.6187 0.0226,0.1372 0.0581,0.2572 0.1096,0.3627 0.1016,0.2151 0.2481,0.3827 0.4433,0.5027 0.1939,0.1214 0.4142,0.182 0.6595,0.182 0.4248,0 0.7388,-0.1451 0.9432,-0.4353 0.2033,-0.2889 0.3048,-0.7387 0.3048,-1.3469 l 0,-3.4431 0.5448,0 0,3.579 c 0,0.7295 -0.145,1.2731 -0.4353,1.6317 -0.2889,0.3577 -0.7296,0.537 -1.3192,0.537 -0.6318,0 -1.0949,-0.1755 -1.3917,-0.5263 -0.2969,-0.3496 -0.4446,-0.897 -0.4446,-1.6424 l 0,-3.579 z"
         class="fil1"
         id="_1" /><path
         style="fill:#2b2a29;fill-rule:nonzero"
         d="m 51.6911,242.184 -3.8375,0 c 0.0329,0.4632 0.2005,0.8364 0.5025,1.1226 0.3008,0.285 0.6768,0.4275 1.128,0.4275 0.3193,0 0.6068,-0.0831 0.8614,-0.248 0.2547,-0.1662 0.4526,-0.3957 0.591,-0.6913 l 0.6187,0 c -0.1951,0.471 -0.4709,0.8311 -0.8245,1.0831 -0.3548,0.2519 -0.7651,0.3786 -1.2308,0.3786 -0.6187,0 -1.1424,-0.2203 -1.5698,-0.6608 -0.4274,-0.4408 -0.6411,-0.9711 -0.6411,-1.5884 0,-0.6477 0.2098,-1.182 0.628,-1.6042 0.4181,-0.4234 0.9537,-0.6344 1.6054,-0.6344 0.6397,0 1.1609,0.2202 1.5632,0.6596 0.4038,0.4405 0.6055,1.013 0.6055,1.7174 l 0,0.0383 z m -0.6029,-0.4603 c -0.1029,-0.4776 -0.2927,-0.8377 -0.5685,-1.0792 -0.2757,-0.2414 -0.6346,-0.3614 -1.0777,-0.3614 -0.4117,0 -0.7613,0.1293 -1.0475,0.3891 -0.2863,0.26 -0.4604,0.6096 -0.5251,1.0515 l 3.2188,0 z"
         class="fil1"
         id="_12" /><path
         style="fill:#2b2a29;fill-rule:nonzero"
         d="m 52.1014,242.529 0.533,0 c 0.0106,0.3482 0.1095,0.6253 0.2955,0.8311 0.1873,0.2072 0.4326,0.31 0.736,0.31 0.3272,0 0.5872,-0.1028 0.7797,-0.3074 0.1914,-0.2045 0.2876,-0.4827 0.2876,-0.8337 0,-0.5091 -0.3944,-0.8958 -1.1833,-1.1556 -0.0619,-0.0212 -0.1081,-0.0357 -0.1385,-0.0462 -0.4129,-0.1424 -0.7097,-0.3219 -0.8904,-0.5396 -0.1822,-0.2176 -0.2731,-0.5012 -0.2731,-0.8521 0,-0.4486 0.1398,-0.8153 0.4195,-1.1015 0.2796,-0.2863 0.6411,-0.4289 1.0843,-0.4289 0.4222,0 0.7572,0.1307 1.0053,0.3906 0.2467,0.2599 0.3851,0.6267 0.4129,1.0975 l -0.5224,0 c -0.0277,-0.3072 -0.12,-0.5434 -0.2744,-0.7097 -0.1543,-0.1662 -0.3614,-0.2493 -0.6214,-0.2493 -0.2782,0 -0.5066,0.091 -0.682,0.2731 -0.1768,0.1808 -0.2651,0.413 -0.2651,0.6939 0,0.1465 0.0264,0.273 0.0791,0.3799 0.0528,0.1069 0.1371,0.2045 0.2533,0.2929 0.1188,0.0871 0.3456,0.1846 0.6806,0.2929 0.1927,0.0619 0.3391,0.1121 0.4408,0.1517 0.3653,0.1412 0.6291,0.3219 0.7901,0.5422 0.161,0.2203 0.2414,0.5091 0.2414,0.868 0,0.546 -0.149,0.9868 -0.4459,1.3204 -0.2982,0.3339 -0.6925,0.5001 -1.1845,0.5001 -0.4592,0 -0.8311,-0.1584 -1.1175,-0.4736 -0.2863,-0.3153 -0.4327,-0.7309 -0.4406,-1.2467 z"
         class="fil1"
         id="_123" /><path
         style="fill:#2b2a29;fill-rule:nonzero"
         d="m 60.5695,239.964 c -0.252,-0.3495 -0.5344,-0.6081 -0.847,-0.773 -0.3113,-0.1649 -0.6675,-0.2467 -1.0659,-0.2467 -0.6266,0 -1.1623,0.2322 -1.6069,0.6952 -0.4444,0.4643 -0.6661,1.0158 -0.6661,1.6557 0,0.6793 0.2217,1.2532 0.6635,1.7202 0.442,0.4656 0.9775,0.6992 1.6095,0.6992 0.3891,0 0.7413,-0.0819 1.0554,-0.2441 0.3139,-0.1622 0.587,-0.4051 0.8192,-0.727 l 0.6569,0 c -0.2572,0.4789 -0.6029,0.8496 -1.0356,1.1122 -0.4327,0.2611 -0.9182,0.3918 -1.4576,0.3918 -0.8272,0 -1.5171,-0.2824 -2.0698,-0.847 -0.5529,-0.5632 -0.8285,-1.269 -0.8285,-2.1134 0,-0.3944 0.0751,-0.7677 0.2242,-1.1212 0.149,-0.3536 0.3681,-0.6715 0.657,-0.9551 0.2678,-0.2679 0.5686,-0.471 0.9022,-0.6082 0.3339,-0.1385 0.6953,-0.2071 1.0845,-0.2071 0.5593,0 1.062,0.1359 1.5092,0.409 0.4472,0.273 0.8006,0.6595 1.0606,1.1595 l -0.6648,0 z"
         class="fil1"
         id="_1234" /><path
         style="fill:#2b2a29;fill-rule:nonzero"
         d="m 62.328,241.296 c 0,0.6847 0.2229,1.2598 0.6687,1.7241 0.446,0.4631 0.9961,0.6953 1.6505,0.6953 0.6384,0 1.178,-0.2348 1.6186,-0.7032 0.4405,-0.4696 0.6608,-1.0475 0.6608,-1.7321 0,-0.6398 -0.2268,-1.1899 -0.6806,-1.6529 -0.4525,-0.4631 -0.9987,-0.6939 -1.6385,-0.6939 -0.2599,0 -0.5104,0.0448 -0.7506,0.1332 -0.2415,0.0897 -0.463,0.2204 -0.6675,0.3931 -0.2677,0.2257 -0.4789,0.5027 -0.6318,0.8311 -0.1531,0.3272 -0.2296,0.6622 -0.2296,1.0053 z m -0.5791,-0.008 c 0,-0.3918 0.0751,-0.7664 0.2255,-1.1212 0.1517,-0.3562 0.3694,-0.6741 0.6556,-0.9551 0.2758,-0.2705 0.5791,-0.4737 0.9103,-0.6108 0.3311,-0.136 0.6899,-0.2046 1.0764,-0.2046 0.3932,0 0.7587,0.0686 1.095,0.2072 0.3364,0.1372 0.6438,0.3429 0.9222,0.616 0.2862,0.281 0.5013,0.5951 0.6451,0.9433 0.1436,0.3483 0.2162,0.7229 0.2162,1.1252 0,0.3985 -0.0619,0.7653 -0.186,1.0989 -0.1226,0.3338 -0.3086,0.6372 -0.5553,0.9103 -0.2862,0.3153 -0.6096,0.5514 -0.971,0.7111 -0.3601,0.1596 -0.7519,0.2401 -1.174,0.2401 -0.8087,0 -1.4881,-0.2837 -2.037,-0.8523 -0.5487,-0.5686 -0.823,-1.2716 -0.823,-2.1081 z"
         class="fil1"
         id="_12345" /><rect
         style="fill:#2b2a29;stroke:#2b2a29;stroke-width:0.35280001"
         height="23.628901"
         width="14.6113"
         y="235.162"
         x="23.5991"
         class="fil2 str2"
         id="_578033816" /><path
         style="fill:none;stroke:#2b2a29;stroke-width:0.70560002"
         d="M 23.5989,258.761 C 10.5656,258.7608 1e-4,248.1951 1e-4,235.162"
         class="fil0 str3"
         id="_578474336" /><path
         style="fill:none;stroke:#2b2a29;stroke-width:0.70560002"
         d="m 1e-4,235.162 c 0,-21.0761 17.1071,-38.1614 38.2102,-38.1614"
         class="fil0 str3"
         id="_578474504" /><path
         style="fill:none;stroke:#2b2a29;stroke-width:0.70599997"
         d="m 38.2102,197 c 34.1254,4e-4 61.7895,27.6647 61.7895,61.7901"
         class="fil0 str4"
         id="_578474648" /><g
         id="_576842536"><path
           style="fill:none;stroke:#fefefe;stroke-width:0.70560002"
           d="m 23.6062,240.738 c 0,-3.0797 2.4966,-5.5763 5.5764,-5.5763"
           class="fil0 str5"
           id="_576842392" /><path
           style="fill:none;stroke:#fefefe;stroke-width:0.70560002"
           d="m 29.1826,235.162 c 4.9803,0 9.0175,4.0423 9.0175,9.0289"
           class="fil0 str5"
           id="_576842992" /><path
           style="fill:none;stroke:#fefefe;stroke-width:0.70560002"
           d="m 38.2001,244.191 c -10e-5,8.0638 -6.5372,14.6009 -14.601,14.6009"
           class="fil0 str5"
           id="_576842512" /></g><g
         id="_576845728"><path
           style="fill:none;stroke:#fefefe;stroke-width:0.70560002"
           d="m 27.9837,240.604 c 0.748,0 1.3543,0.6064 1.3543,1.3544"
           class="fil0 str5"
           id="_576842344" /><path
           style="fill:none;stroke:#fefefe;stroke-width:0.70560002"
           d="m 29.338,241.957 c 0,1.2095 -0.9818,2.1901 -2.1929,2.1901"
           class="fil0 str5"
           id="_576842224" /><path
           style="fill:none;stroke:#fefefe;stroke-width:0.70560002"
           d="m 27.1451,244.148 c -1.9586,0 -3.5463,-1.5877 -3.5463,-3.5463"
           class="fil0 str5"
           id="_576845848" /></g></g><polygon
       style="fill:#2b2a29;fill-rule:nonzero"
       id="polygon4167"
       points="84.084,279.242 84.9107,276.68 85.3767,276.68 84.2241,280.101 83.9375,280.101 83.1352,277.495 82.3445,280.101 82.058,280.101 80.9054,276.68 81.3628,276.68 82.1981,279.242 82.9824,276.68 83.2997,276.68 "
       class="fil3" /><polygon
       style="fill:#2b2a29;fill-rule:nonzero"
       points="88.5022,279.242 89.3289,276.68 89.7949,276.68 88.6423,280.101 88.3557,280.101 87.5534,277.495 86.7627,280.101 86.4762,280.101 85.3236,276.68 85.781,276.68 86.6163,279.242 87.4006,276.68 87.7179,276.68 "
       class="fil3"
       id="1" /><polygon
       style="fill:#2b2a29;fill-rule:nonzero"
       points="92.9204,279.242 93.7471,276.68 94.2131,276.68 93.0605,280.101 92.7739,280.101 91.9716,277.495 91.1809,280.101 90.8944,280.101 89.7418,276.68 90.1992,276.68 91.0345,279.242 91.8188,276.68 92.1361,276.68 "
       class="fil3"
       id="12" /><polygon
       style="fill:#2b2a29;fill-rule:nonzero"
       points="94.3903,280.101 94.3903,279.274 94.835,279.274 94.835,280.101 "
       class="fil3"
       id="123" /><path
       style="fill:#2b2a29;fill-rule:nonzero"
       d="m 96.3017,280.101 -0.4447,0 0,-3.4206 0.4139,0 0,0.3948 c 0.1072,-0.1517 0.225,-0.2621 0.3524,-0.3332 0.1284,-0.0701 0.277,-0.1072 0.4468,-0.1115 l 0.0032,0.4755 c -0.276,0.0244 -0.4734,0.1072 -0.5922,0.2473 -0.12,0.1401 -0.1794,0.3672 -0.1794,0.6824 l 0,2.0653 z"
       class="fil3"
       id="1234" /><path
       style="fill:#2b2a29;fill-rule:nonzero"
       d="m 97.4426,276.68 0.4319,0 0,1.8159 c 0,0.4659 0.0754,0.796 0.2271,0.9902 0.1507,0.1942 0.4001,0.2908 0.7461,0.2908 0.1974,0 0.3704,-0.0403 0.519,-0.1199 0.1496,-0.0796 0.2696,-0.1953 0.3608,-0.346 0.052,-0.0892 0.0892,-0.1953 0.1125,-0.3163 0.0223,-0.121 0.034,-0.3322 0.034,-0.6325 l 0,-1.6822 0.4383,0 0,3.4206 -0.4383,0 0,-0.3704 c -0.1327,0.1624 -0.2813,0.2791 -0.4447,0.3513 -0.1634,0.0732 -0.3619,0.1093 -0.5943,0.1093 -0.4925,0 -0.848,-0.1337 -1.0656,-0.4001 -0.2175,-0.2664 -0.3268,-0.7079 -0.3268,-1.3256 l 0,-1.7851 z"
       class="fil3"
       id="12345" /><path
       style="fill:#2b2a29;fill-rule:nonzero"
       d="m 104.364,278.53 -3.0874,0 c 0.0266,0.3725 0.1614,0.6728 0.4044,0.9031 0.242,0.2293 0.5444,0.3439 0.9074,0.3439 0.2568,0 0.4882,-0.0669 0.693,-0.1995 0.2049,-0.1337 0.3641,-0.3184 0.4755,-0.5561 l 0.4977,0 c -0.157,0.3788 -0.3788,0.6686 -0.6633,0.8713 -0.2855,0.2027 -0.6155,0.3046 -0.9902,0.3046 -0.4977,0 -0.919,-0.1773 -1.2629,-0.5317 -0.3439,-0.3545 -0.5158,-0.7811 -0.5158,-1.2778 0,-0.5211 0.1687,-0.951 0.5052,-1.2906 0.3364,-0.3407 0.7673,-0.5105 1.2916,-0.5105 0.5147,0 0.9339,0.1773 1.2576,0.5307 0.3248,0.3545 0.4872,0.8151 0.4872,1.3818 l 0,0.0308 z m -0.4851,-0.3704 c -0.0827,-0.3842 -0.2356,-0.6739 -0.4574,-0.8682 -0.2218,-0.1942 -0.5105,-0.2908 -0.8671,-0.2908 -0.3311,0 -0.6123,0.1041 -0.8426,0.3131 -0.2303,0.2091 -0.3704,0.4903 -0.4224,0.8459 l 2.5895,0 z"
       class="fil3"
       id="123456" /><path
       style="fill:#2b2a29;fill-rule:nonzero"
       d="m 104.651,279.024 0.4511,0 0,0.0128 c 0,0.2133 0.0615,0.3895 0.1836,0.5296 0.122,0.1401 0.2738,0.2101 0.4542,0.2101 0.1719,0 0.3142,-0.0541 0.4288,-0.1613 0.1135,-0.1083 0.1709,-0.2441 0.1709,-0.4076 0,-0.1634 -0.0446,-0.295 -0.1348,-0.3948 -0.0902,-0.0997 -0.2537,-0.1931 -0.4904,-0.2801 -0.3788,-0.1348 -0.6272,-0.2728 -0.7429,-0.4129 -0.1156,-0.1411 -0.174,-0.3301 -0.174,-0.5667 0,-0.2675 0.0966,-0.4946 0.2908,-0.6803 0.1931,-0.1868 0.4287,-0.2802 0.7036,-0.2802 0.2929,0 0.5243,0.0828 0.6962,0.2483 0.172,0.1667 0.2643,0.398 0.277,0.6941 l -0.4691,0 c -0.0106,-0.1623 -0.0615,-0.2876 -0.1538,-0.3767 -0.0924,-0.0892 -0.2187,-0.1337 -0.3779,-0.1337 -0.1432,0 -0.2621,0.0477 -0.3576,0.1443 -0.0955,0.0966 -0.1433,0.2165 -0.1433,0.3598 0,0.1019 0.0202,0.1868 0.0594,0.2568 0.0393,0.069 0.104,0.1316 0.1953,0.1879 0.0828,0.052 0.2038,0.1018 0.363,0.1496 0.1581,0.0478 0.2642,0.0828 0.3184,0.1051 0.2133,0.0912 0.3704,0.2122 0.4712,0.364 0.1008,0.1518 0.1507,0.3439 0.1507,0.5784 0,0.294 -0.103,0.5381 -0.3078,0.7312 -0.2048,0.1921 -0.4659,0.2887 -0.7801,0.2887 -0.3215,0 -0.5794,-0.1051 -0.7747,-0.3152 -0.1953,-0.2112 -0.2972,-0.4946 -0.3078,-0.8512 z"
       class="fil3"
       id="1234567" /><path
       style="fill:#2b2a29;fill-rule:nonzero"
       d="m 110.083,277.731 c -0.1348,-0.2483 -0.2993,-0.4319 -0.4924,-0.5519 -0.1942,-0.1188 -0.4245,-0.1783 -0.692,-0.1783 -0.3523,0 -0.6516,0.1338 -0.8968,0.4012 -0.2451,0.2675 -0.3683,0.5975 -0.3683,0.9913 0,0.3937 0.1232,0.7227 0.3704,0.987 0.2463,0.2642 0.5508,0.3969 0.9138,0.3969 0.2653,0 0.4988,-0.0658 0.7026,-0.1963 0.2027,-0.1306 0.3566,-0.3131 0.4627,-0.5498 l 0.485,0 c -0.1326,0.3715 -0.3406,0.658 -0.6251,0.8618 -0.2833,0.2027 -0.6187,0.3046 -1.004,0.3046 -0.4956,0 -0.9137,-0.1762 -1.2544,-0.5275 -0.3407,-0.3513 -0.5116,-0.7747 -0.5116,-1.2704 0,-0.5051 0.173,-0.9339 0.518,-1.2852 0.3449,-0.3513 0.7651,-0.5275 1.2608,-0.5275 0.3704,0 0.6972,0.0998 0.9806,0.3004 0.2834,0.1995 0.4946,0.4808 0.6357,0.8437 l -0.485,0 z"
       class="fil3"
       id="12345678" /><path
       style="fill:#2b2a29;fill-rule:nonzero"
       d="m 111.479,278.387 c 0,0.3948 0.1252,0.7249 0.3757,0.9913 0.2515,0.2663 0.5625,0.399 0.9361,0.399 0.3661,0 0.6739,-0.1327 0.9233,-0.399 0.2483,-0.2664 0.3725,-0.5986 0.3725,-0.9966 0,-0.4044 -0.1263,-0.7365 -0.3778,-0.9966 -0.2515,-0.26 -0.571,-0.3905 -0.9584,-0.3905 -0.3481,0 -0.6473,0.1337 -0.8968,0.4011 -0.2494,0.2675 -0.3746,0.5976 -0.3746,0.9913 z m -0.4606,0.007 c 0,-0.502 0.1719,-0.9307 0.5158,-1.2873 0.3439,-0.3566 0.7514,-0.5349 1.2226,-0.5349 0.4946,0 0.917,0.1751 1.2661,0.5253 0.3492,0.3503 0.5243,0.7684 0.5243,1.2534 0,0.5094 -0.1708,0.9446 -0.5126,1.3054 -0.3428,0.3609 -0.7567,0.5413 -1.2438,0.5413 -0.4957,0 -0.9149,-0.1773 -1.2577,-0.5307 -0.3428,-0.3534 -0.5147,-0.7768 -0.5147,-1.2725 z"
       class="fil3"
       id="123456789" /><polygon
       style="fill:#2b2a29;fill-rule:nonzero"
       points="115.161,280.101 115.161,279.274 115.606,279.274 115.606,280.101 "
       class="fil3"
       id="12345678910" /><path
       style="fill:#2b2a29;fill-rule:nonzero"
       d="m 117.079,276.279 -0.4383,0 0,-0.7058 0.4383,0 0,0.7058 z m -0.4383,3.8217 0,-3.4206 0.4383,0 0,3.4206 -0.4383,0 z"
       class="fil3"
       id="1234567891011" /><polygon
       style="fill:#2b2a29;fill-rule:nonzero"
       points="118.086,277.121 117.436,277.121 117.436,276.68 118.086,276.68 118.086,275.573 118.524,275.573 118.524,276.68 119.174,276.68 119.174,277.121 118.524,277.121 118.524,280.101 118.086,280.101 "
       class="fil3"
       id="123456789101112" /></g></svg>